<svg width="86" height="20" viewBox="0 0 86 20" fill="none" xmlns="http://www.w3.org/2000/svg">
<path d="M28.626 15.168C27.7953 15.168 27.1047 14.958 26.554 14.538C26.0033 14.118 25.6813 13.5487 25.588 12.83H26.792C26.8667 13.194 27.058 13.5113 27.366 13.782C27.6833 14.0433 28.108 14.174 28.64 14.174C29.1347 14.174 29.4987 14.0713 29.732 13.866C29.9653 13.6513 30.082 13.3993 30.082 13.11C30.082 12.69 29.928 12.41 29.62 12.27C29.3213 12.13 28.8967 12.004 28.346 11.892C27.9727 11.8173 27.5993 11.71 27.226 11.57C26.8527 11.43 26.54 11.234 26.288 10.982C26.036 10.7207 25.91 10.38 25.91 9.96C25.91 9.35333 26.134 8.85867 26.582 8.476C27.0393 8.084 27.6553 7.888 28.43 7.888C29.1673 7.888 29.7693 8.07467 30.236 8.448C30.712 8.812 30.9873 9.33467 31.062 10.016H29.9C29.8533 9.66133 29.6993 9.386 29.438 9.19C29.186 8.98467 28.8453 8.882 28.416 8.882C27.996 8.882 27.6693 8.97067 27.436 9.148C27.212 9.32533 27.1 9.55867 27.1 9.848C27.1 10.128 27.2447 10.3473 27.534 10.506C27.8327 10.6647 28.234 10.8 28.738 10.912C29.1673 11.0053 29.5733 11.122 29.956 11.262C30.348 11.3927 30.6653 11.5933 30.908 11.864C31.16 12.1253 31.286 12.508 31.286 13.012C31.2953 13.6373 31.0573 14.1553 30.572 14.566C30.096 14.9673 29.4473 15.168 28.626 15.168ZM33.68 6.516C33.4467 6.516 33.2507 6.44133 33.092 6.292C32.9427 6.13333 32.868 5.93733 32.868 5.704C32.868 5.48 32.9427 5.29333 33.092 5.144C33.2507 4.99467 33.4467 4.92 33.68 4.92C33.904 4.92 34.0953 4.99467 34.254 5.144C34.4127 5.29333 34.492 5.48 34.492 5.704C34.492 5.93733 34.4127 6.13333 34.254 6.292C34.0953 6.44133 33.904 6.516 33.68 6.516ZM33.092 15V8.056H34.268V15H33.092ZM38.6256 15.168C38.0469 15.168 37.5663 15.07 37.1836 14.874C36.8009 14.678 36.5163 14.4167 36.3296 14.09C36.1429 13.7633 36.0496 13.4087 36.0496 13.026C36.0496 12.3167 36.3203 11.7707 36.8616 11.388C37.4029 11.0053 38.1403 10.814 39.0736 10.814H40.9496V10.73C40.9496 10.1233 40.7909 9.666 40.4736 9.358C40.1563 9.04067 39.7316 8.882 39.1996 8.882C38.7423 8.882 38.3456 8.99867 38.0096 9.232C37.6829 9.456 37.4776 9.78733 37.3936 10.226H36.1896C36.2363 9.722 36.4043 9.29733 36.6936 8.952C36.9923 8.60667 37.3609 8.34533 37.7996 8.168C38.2383 7.98133 38.7049 7.888 39.1996 7.888C40.1703 7.888 40.8983 8.14933 41.3836 8.672C41.8783 9.18533 42.1256 9.87133 42.1256 10.73V15H41.0756L41.0056 13.754C40.8096 14.146 40.5203 14.482 40.1376 14.762C39.7643 15.0327 39.2603 15.168 38.6256 15.168ZM38.8076 14.174C39.2556 14.174 39.6383 14.0573 39.9556 13.824C40.2823 13.5907 40.5296 13.2873 40.6976 12.914C40.8656 12.5407 40.9496 12.1487 40.9496 11.738V11.724H39.1716C38.4809 11.724 37.9909 11.8453 37.7016 12.088C37.4216 12.3213 37.2816 12.6153 37.2816 12.97C37.2816 13.334 37.4123 13.628 37.6736 13.852C37.9443 14.0667 38.3223 14.174 38.8076 14.174ZM43.8898 15V8.056H44.9538L45.0378 9.064C45.2618 8.69067 45.5605 8.40133 45.9338 8.196C46.3072 7.99067 46.7272 7.888 47.1938 7.888C47.7445 7.888 48.2158 8 48.6078 8.224C49.0092 8.448 49.3172 8.78867 49.5318 9.246C49.7745 8.826 50.1058 8.49467 50.5258 8.252C50.9552 8.00933 51.4172 7.888 51.9118 7.888C52.7425 7.888 53.4052 8.14 53.8998 8.644C54.3945 9.13867 54.6418 9.904 54.6418 10.94V15H53.4798V11.066C53.4798 10.3473 53.3352 9.806 53.0458 9.442C52.7565 9.078 52.3412 8.896 51.7998 8.896C51.2398 8.896 50.7732 9.11533 50.3998 9.554C50.0358 9.98333 49.8538 10.5993 49.8538 11.402V15H48.6778V11.066C48.6778 10.3473 48.5332 9.806 48.2438 9.442C47.9545 9.078 47.5392 8.896 46.9978 8.896C46.4472 8.896 45.9852 9.11533 45.6118 9.554C45.2478 9.98333 45.0658 10.5993 45.0658 11.402V15H43.8898ZM58.2785 15L55.6465 8.056H56.8785L58.9645 13.866L61.0645 8.056H62.2685L59.6365 15H58.2785ZM64.2913 6.516C64.058 6.516 63.862 6.44133 63.7033 6.292C63.554 6.13333 63.4793 5.93733 63.4793 5.704C63.4793 5.48 63.554 5.29333 63.7033 5.144C63.862 4.99467 64.058 4.92 64.2913 4.92C64.5153 4.92 64.7067 4.99467 64.8653 5.144C65.024 5.29333 65.1033 5.48 65.1033 5.704C65.1033 5.93733 65.024 6.13333 64.8653 6.292C64.7067 6.44133 64.5153 6.516 64.2913 6.516ZM63.7033 15V8.056H64.8793V15H63.7033ZM69.6709 15C69.0363 15 68.5369 14.846 68.1729 14.538C67.8089 14.23 67.6269 13.6747 67.6269 12.872V9.05H66.4229V8.056H67.6269L67.7809 6.39H68.8029V8.056H70.8469V9.05H68.8029V12.872C68.8029 13.3107 68.8916 13.6093 69.0689 13.768C69.2463 13.9173 69.5589 13.992 70.0069 13.992H70.7349V15H69.6709ZM72.747 15.07C72.5137 15.07 72.3177 14.9953 72.159 14.846C72.0097 14.6873 71.935 14.496 71.935 14.272C71.935 14.048 72.0097 13.8613 72.159 13.712C72.3177 13.5533 72.5137 13.474 72.747 13.474C72.971 13.474 73.1577 13.5533 73.307 13.712C73.4657 13.8613 73.545 14.048 73.545 14.272C73.545 14.496 73.4657 14.6873 73.307 14.846C73.1577 14.9953 72.971 15.07 72.747 15.07ZM75.7894 6.516C75.556 6.516 75.36 6.44133 75.2014 6.292C75.052 6.13333 74.9774 5.93733 74.9774 5.704C74.9774 5.48 75.052 5.29333 75.2014 5.144C75.36 4.99467 75.556 4.92 75.7894 4.92C76.0134 4.92 76.2047 4.99467 76.3634 5.144C76.522 5.29333 76.6014 5.48 76.6014 5.704C76.6014 5.93733 76.522 6.13333 76.3634 6.292C76.2047 6.44133 76.0134 6.516 75.7894 6.516ZM75.2014 15V8.056H76.3774V15H75.2014ZM78.425 15V8.056H79.489L79.559 9.302C79.783 8.86333 80.105 8.518 80.525 8.266C80.945 8.014 81.421 7.888 81.953 7.888C82.7743 7.888 83.4277 8.14 83.913 8.644C84.4077 9.13867 84.655 9.904 84.655 10.94V15H83.479V11.066C83.479 9.61933 82.8817 8.896 81.687 8.896C81.0897 8.896 80.5903 9.11533 80.189 9.554C79.797 9.98333 79.601 10.5993 79.601 11.402V15H78.425Z" fill="#F85F48"/>
<path d="M25 16.75H85.467V17.45H25V16.75Z" fill="#F85F48"/>
<path d="M16.0025 6.07102C15.8814 6.04581 15.7906 6.0332 15.7301 6.0332C15.282 6.0332 14.8945 6.1908 14.5676 6.50602C13.8289 6.16559 13.1387 5.8882 12.4969 5.67385C11.4433 5.32081 10.3414 5.03082 9.19101 4.80386C9.08202 4.50126 8.91855 4.24909 8.70058 4.04735C9.00331 2.55954 9.40897 1.21042 9.91757 0C11.4433 0.113477 12.845 0.57369 14.1225 1.38064C15.4001 2.18759 16.4324 3.2467 17.2195 4.558C16.7715 5.06234 16.3658 5.56668 16.0025 6.07102ZM7.5744 3.61235C7.25956 3.61235 6.96288 3.70061 6.68437 3.87713C5.70351 3.12062 4.71659 2.47758 3.72362 1.94802C5.22519 0.762818 6.90839 0.113477 8.77323 0C8.30097 1.09694 7.91952 2.30106 7.6289 3.61235H7.5744ZM1.27147 4.78495C1.68319 4.06626 2.2039 3.3854 2.83358 2.74236C3.65702 3.18366 4.51073 3.72583 5.39472 4.36887C3.83261 4.33104 2.45819 4.46974 1.27147 4.78495ZM5.83065 5.54146C5.85487 5.93233 5.98505 6.27591 6.22118 6.57221C6.45731 6.86851 6.75097 7.0671 7.10214 7.16797C7.02948 8.05057 6.99315 8.88904 6.99315 9.68338C6.99315 10.2382 7.01132 10.8749 7.04765 11.5936C6.78124 11.6818 6.54511 11.8331 6.33925 12.0475C5.68534 11.7827 5.05565 11.4801 4.45019 11.1397C4.58339 10.8623 4.64999 10.5786 4.64999 10.2886C4.64999 9.78424 4.48046 9.35555 4.1414 9.00251C3.80233 8.64947 3.39062 8.47295 2.90624 8.47295C2.37343 8.47295 1.93144 8.6873 1.58026 9.11599C1.07167 8.63687 0.617569 8.13883 0.217959 7.62188C0.326944 7.07971 0.49042 6.54384 0.708389 6.01428C2.18573 5.58559 3.89315 5.42799 5.83065 5.54146ZM1.18065 10.4399C1.21698 10.9064 1.40165 11.3004 1.73466 11.6219C2.06767 11.9435 2.45819 12.1042 2.90624 12.1042C3.03944 12.1042 3.18476 12.079 3.34218 12.0286C4.11718 12.4951 4.94667 12.8986 5.83065 13.239V13.3146C5.83065 13.8064 5.9911 14.2256 6.312 14.5723C6.6329 14.9191 7.02948 15.1051 7.50175 15.1303C7.80448 16.6685 8.22831 18.0744 8.77323 19.3478C7.5623 19.2722 6.41796 18.9664 5.34022 18.4306C4.26249 17.8947 3.3331 17.1981 2.55204 16.3407C1.77099 15.4833 1.15038 14.4746 0.690225 13.3146C0.230069 12.1547 -9.53674e-06 10.9442 -9.53674e-06 9.68338C-9.53674e-06 9.67077 0.00604515 9.50055 0.0181545 9.17273C0.357217 9.61403 0.744717 10.0364 1.18065 10.4399ZM9.10019 14.1657C9.97206 14.3296 10.85 14.4368 11.734 14.4872C11.8187 14.7394 11.9519 14.9727 12.1336 15.187C11.8551 16.5109 11.6855 17.797 11.625 19.0452C11.0074 19.2091 10.4383 19.31 9.91757 19.3478C9.34843 17.9987 8.90644 16.4731 8.59159 14.7709C8.80956 14.6196 8.97909 14.4179 9.10019 14.1657ZM14.731 15.0735C14.8885 14.8718 14.9975 14.6575 15.058 14.4305C15.942 14.3548 16.7957 14.2351 17.6191 14.0712C17.0379 15.2564 16.2387 16.284 15.2215 17.1539C15.1125 16.4983 14.949 15.8048 14.731 15.0735ZM11.7703 13.2768C10.9226 13.2264 10.0871 13.1129 9.26366 12.9364C9.13046 12.306 8.78534 11.871 8.22831 11.6314C8.17987 10.8875 8.15565 10.2382 8.15565 9.68338C8.15565 8.85121 8.19198 7.98752 8.26464 7.09232C8.28886 7.09232 8.31913 7.07971 8.35546 7.05449C8.39179 7.02927 8.41601 7.01667 8.42812 7.01667C8.90038 7.49579 9.3121 7.93709 9.66327 8.34056C10.7168 9.55099 11.6129 10.9253 12.3516 12.4636C12.0851 12.6779 11.8914 12.949 11.7703 13.2768ZM13.3869 15.7355C13.4111 15.7355 13.4777 15.7292 13.5867 15.7166C13.7926 16.4857 13.9439 17.2485 14.0408 18.005C13.6896 18.2194 13.2658 18.4337 12.7693 18.6481C12.8541 17.6646 12.9994 16.6874 13.2053 15.7166C13.3021 15.7292 13.3627 15.7355 13.3869 15.7355ZM13.2961 11.2153C13.284 11.2405 13.2688 11.2784 13.2507 11.3288C13.2325 11.3792 13.2174 11.4171 13.2053 11.4423C12.4424 10.0049 11.5463 8.69991 10.517 7.52731C10.1416 7.08601 9.69355 6.60689 9.17284 6.08994C9.18495 6.08994 9.19403 6.08048 9.20009 6.06157L9.20917 6.0332C10.2264 6.24754 11.2012 6.51232 12.1336 6.82754C12.7027 7.01667 13.3264 7.26884 14.0045 7.58405C13.9803 7.71014 13.9682 7.8047 13.9682 7.86774C13.9682 8.246 14.0771 8.59274 14.2951 8.90795C13.8955 9.70229 13.5625 10.4714 13.2961 11.2153ZM14.1498 12.3123C14.2951 11.871 14.3678 11.644 14.3678 11.6314C14.61 11.001 14.9127 10.3264 15.276 9.60773C15.4334 9.65816 15.5848 9.68338 15.7301 9.68338C16.1418 9.68338 16.5111 9.53838 16.8381 9.24838C17.4314 9.67707 18.0127 10.1562 18.5818 10.6858C18.5092 11.4044 18.3639 12.0979 18.1459 12.7662C17.1529 12.9805 16.1055 13.1318 15.0035 13.2201C14.8461 12.8166 14.5615 12.514 14.1498 12.3123ZM17.4738 7.84883C17.4738 7.43275 17.3406 7.05449 17.0742 6.71406C17.3285 6.37363 17.5828 6.06472 17.8371 5.78733C18.273 6.82123 18.5273 7.88666 18.6 8.9836C18.2004 8.66839 17.8129 8.38469 17.4375 8.13252C17.4617 8.01905 17.4738 7.92448 17.4738 7.84883Z" fill="#132B47"/>
</svg>
