<svg width="137" height="20" viewBox="0 0 137 20" fill="none" xmlns="http://www.w3.org/2000/svg">
<path d="M20.392 16.33L23.906 4.304H25.068L21.554 16.33H20.392ZM28.9705 15.168C28.3078 15.168 27.7105 15.0187 27.1785 14.72C26.6558 14.412 26.2405 13.9873 25.9325 13.446C25.6338 12.8953 25.4845 12.256 25.4845 11.528C25.4845 10.8 25.6338 10.1653 25.9325 9.624C26.2405 9.07333 26.6558 8.64867 27.1785 8.35C27.7105 8.042 28.3078 7.888 28.9705 7.888C29.7918 7.888 30.4825 8.10267 31.0425 8.532C31.6118 8.96133 31.9712 9.53533 32.1205 10.254H30.9165C30.8232 9.82467 30.5945 9.49333 30.2305 9.26C29.8665 9.01733 29.4418 8.896 28.9565 8.896C28.5645 8.896 28.1958 8.994 27.8505 9.19C27.5052 9.386 27.2252 9.68 27.0105 10.072C26.7958 10.464 26.6885 10.9493 26.6885 11.528C26.6885 12.1067 26.7958 12.592 27.0105 12.984C27.2252 13.376 27.5052 13.6747 27.8505 13.88C28.1958 14.076 28.5645 14.174 28.9565 14.174C29.4418 14.174 29.8665 14.0573 30.2305 13.824C30.5945 13.5813 30.8232 13.2407 30.9165 12.802H32.1205C31.9805 13.502 31.6258 14.0713 31.0565 14.51C30.4872 14.9487 29.7918 15.168 28.9705 15.168ZM36.9269 15.168C36.2735 15.168 35.6855 15.0187 35.1629 14.72C34.6402 14.4213 34.2249 14.0013 33.9169 13.46C33.6182 12.9093 33.4689 12.2653 33.4689 11.528C33.4689 10.7907 33.6229 10.1513 33.9309 9.61C34.2389 9.05933 34.6542 8.63467 35.1769 8.336C35.7089 8.03733 36.3015 7.888 36.9549 7.888C37.6082 7.888 38.1962 8.03733 38.7189 8.336C39.2415 8.63467 39.6522 9.05933 39.9509 9.61C40.2589 10.1513 40.4129 10.7907 40.4129 11.528C40.4129 12.2653 40.2589 12.9093 39.9509 13.46C39.6429 14.0013 39.2229 14.4213 38.6909 14.72C38.1682 15.0187 37.5802 15.168 36.9269 15.168ZM36.9269 14.16C37.3282 14.16 37.7015 14.062 38.0469 13.866C38.3922 13.67 38.6722 13.376 38.8869 12.984C39.1015 12.592 39.2089 12.1067 39.2089 11.528C39.2089 10.9493 39.1015 10.464 38.8869 10.072C38.6815 9.68 38.4062 9.386 38.0609 9.19C37.7155 8.994 37.3469 8.896 36.9549 8.896C36.5535 8.896 36.1802 8.994 35.8349 9.19C35.4895 9.386 35.2095 9.68 34.9949 10.072C34.7802 10.464 34.6729 10.9493 34.6729 11.528C34.6729 12.1067 34.7802 12.592 34.9949 12.984C35.2095 13.376 35.4849 13.67 35.8209 13.866C36.1662 14.062 36.5349 14.16 36.9269 14.16ZM42.048 15V8.056H43.112L43.196 9.064C43.42 8.69067 43.7187 8.40133 44.092 8.196C44.4654 7.99067 44.8854 7.888 45.352 7.888C45.9027 7.888 46.374 8 46.766 8.224C47.1674 8.448 47.4754 8.78867 47.69 9.246C47.9327 8.826 48.264 8.49467 48.684 8.252C49.1134 8.00933 49.5754 7.888 50.07 7.888C50.9007 7.888 51.5634 8.14 52.058 8.644C52.5527 9.13867 52.8 9.904 52.8 10.94V15H51.638V11.066C51.638 10.3473 51.4934 9.806 51.204 9.442C50.9147 9.078 50.4994 8.896 49.958 8.896C49.398 8.896 48.9314 9.11533 48.558 9.554C48.194 9.98333 48.012 10.5993 48.012 11.402V15H46.836V11.066C46.836 10.3473 46.6914 9.806 46.402 9.442C46.1127 9.078 45.6974 8.896 45.156 8.896C44.6054 8.896 44.1434 9.11533 43.77 9.554C43.406 9.98333 43.224 10.5993 43.224 11.402V15H42.048ZM54.5715 18.08V8.056H55.6355L55.7475 9.204C55.9715 8.868 56.2888 8.56467 56.6995 8.294C57.1195 8.02333 57.6515 7.888 58.2955 7.888C58.9861 7.888 59.5881 8.04667 60.1015 8.364C60.6148 8.68133 61.0115 9.11533 61.2915 9.666C61.5808 10.2167 61.7255 10.842 61.7255 11.542C61.7255 12.242 61.5808 12.8673 61.2915 13.418C61.0115 13.9593 60.6101 14.3887 60.0875 14.706C59.5741 15.014 58.9721 15.168 58.2815 15.168C57.7121 15.168 57.2035 15.0513 56.7555 14.818C56.3168 14.5847 55.9808 14.258 55.7475 13.838V18.08H54.5715ZM58.1555 14.146C58.6221 14.146 59.0328 14.0387 59.3875 13.824C59.7421 13.6 60.0221 13.292 60.2275 12.9C60.4328 12.508 60.5355 12.0507 60.5355 11.528C60.5355 11.0053 60.4328 10.548 60.2275 10.156C60.0221 9.764 59.7421 9.46067 59.3875 9.246C59.0328 9.022 58.6221 8.91 58.1555 8.91C57.6888 8.91 57.2781 9.022 56.9235 9.246C56.5688 9.46067 56.2888 9.764 56.0835 10.156C55.8781 10.548 55.7755 11.0053 55.7755 11.528C55.7755 12.0507 55.8781 12.508 56.0835 12.9C56.2888 13.292 56.5688 13.6 56.9235 13.824C57.2781 14.0387 57.6888 14.146 58.1555 14.146ZM65.6725 15.168C65.0938 15.168 64.6132 15.07 64.2305 14.874C63.8478 14.678 63.5632 14.4167 63.3765 14.09C63.1898 13.7633 63.0965 13.4087 63.0965 13.026C63.0965 12.3167 63.3672 11.7707 63.9085 11.388C64.4498 11.0053 65.1872 10.814 66.1205 10.814H67.9965V10.73C67.9965 10.1233 67.8378 9.666 67.5205 9.358C67.2032 9.04067 66.7785 8.882 66.2465 8.882C65.7892 8.882 65.3925 8.99867 65.0565 9.232C64.7298 9.456 64.5245 9.78733 64.4405 10.226H63.2365C63.2832 9.722 63.4512 9.29733 63.7405 8.952C64.0392 8.60667 64.4078 8.34533 64.8465 8.168C65.2852 7.98133 65.7518 7.888 66.2465 7.888C67.2172 7.888 67.9452 8.14933 68.4305 8.672C68.9252 9.18533 69.1725 9.87133 69.1725 10.73V15H68.1225L68.0525 13.754C67.8565 14.146 67.5672 14.482 67.1845 14.762C66.8112 15.0327 66.3072 15.168 65.6725 15.168ZM65.8545 14.174C66.3025 14.174 66.6852 14.0573 67.0025 13.824C67.3292 13.5907 67.5765 13.2873 67.7445 12.914C67.9125 12.5407 67.9965 12.1487 67.9965 11.738V11.724H66.2185C65.5278 11.724 65.0378 11.8453 64.7485 12.088C64.4685 12.3213 64.3285 12.6153 64.3285 12.97C64.3285 13.334 64.4592 13.628 64.7205 13.852C64.9912 14.0667 65.3692 14.174 65.8545 14.174ZM70.9367 15V8.056H72.0007L72.0707 9.302C72.2947 8.86333 72.6167 8.518 73.0367 8.266C73.4567 8.014 73.9327 7.888 74.4647 7.888C75.286 7.888 75.9394 8.14 76.4247 8.644C76.9194 9.13867 77.1667 9.904 77.1667 10.94V15H75.9907V11.066C75.9907 9.61933 75.3934 8.896 74.1987 8.896C73.6014 8.896 73.102 9.11533 72.7007 9.554C72.3087 9.98333 72.1127 10.5993 72.1127 11.402V15H70.9367ZM79.4993 18.08L81.2213 14.328H80.8153L78.0573 8.056H79.3313L81.6273 13.46L84.0633 8.056H85.2813L80.7313 18.08H79.4993ZM85.3881 16.33L88.9021 4.304H90.0641L86.5501 16.33H85.3881ZM93.667 15.168C92.8363 15.168 92.1457 14.958 91.595 14.538C91.0443 14.118 90.7223 13.5487 90.629 12.83H91.833C91.9077 13.194 92.099 13.5113 92.407 13.782C92.7243 14.0433 93.149 14.174 93.681 14.174C94.1757 14.174 94.5397 14.0713 94.773 13.866C95.0063 13.6513 95.123 13.3993 95.123 13.11C95.123 12.69 94.969 12.41 94.661 12.27C94.3623 12.13 93.9377 12.004 93.387 11.892C93.0137 11.8173 92.6403 11.71 92.267 11.57C91.8937 11.43 91.581 11.234 91.329 10.982C91.077 10.7207 90.951 10.38 90.951 9.96C90.951 9.35333 91.175 8.85867 91.623 8.476C92.0803 8.084 92.6963 7.888 93.471 7.888C94.2083 7.888 94.8103 8.07467 95.277 8.448C95.753 8.812 96.0283 9.33467 96.103 10.016H94.941C94.8943 9.66133 94.7403 9.386 94.479 9.19C94.227 8.98467 93.8863 8.882 93.457 8.882C93.037 8.882 92.7103 8.97067 92.477 9.148C92.253 9.32533 92.141 9.55867 92.141 9.848C92.141 10.128 92.2857 10.3473 92.575 10.506C92.8737 10.6647 93.275 10.8 93.779 10.912C94.2083 11.0053 94.6143 11.122 94.997 11.262C95.389 11.3927 95.7063 11.5933 95.949 11.864C96.201 12.1253 96.327 12.508 96.327 13.012C96.3363 13.6373 96.0983 14.1553 95.613 14.566C95.137 14.9673 94.4883 15.168 93.667 15.168ZM98.721 6.516C98.4877 6.516 98.2917 6.44133 98.133 6.292C97.9837 6.13333 97.909 5.93733 97.909 5.704C97.909 5.48 97.9837 5.29333 98.133 5.144C98.2917 4.99467 98.4877 4.92 98.721 4.92C98.945 4.92 99.1363 4.99467 99.295 5.144C99.4537 5.29333 99.533 5.48 99.533 5.704C99.533 5.93733 99.4537 6.13333 99.295 6.292C99.1363 6.44133 98.945 6.516 98.721 6.516ZM98.133 15V8.056H99.309V15H98.133ZM103.667 15.168C103.088 15.168 102.607 15.07 102.225 14.874C101.842 14.678 101.557 14.4167 101.371 14.09C101.184 13.7633 101.091 13.4087 101.091 13.026C101.091 12.3167 101.361 11.7707 101.903 11.388C102.444 11.0053 103.181 10.814 104.115 10.814H105.991V10.73C105.991 10.1233 105.832 9.666 105.515 9.358C105.197 9.04067 104.773 8.882 104.241 8.882C103.783 8.882 103.387 8.99867 103.051 9.232C102.724 9.456 102.519 9.78733 102.435 10.226H101.231C101.277 9.722 101.445 9.29733 101.735 8.952C102.033 8.60667 102.402 8.34533 102.841 8.168C103.279 7.98133 103.746 7.888 104.241 7.888C105.211 7.888 105.939 8.14933 106.425 8.672C106.919 9.18533 107.167 9.87133 107.167 10.73V15H106.117L106.047 13.754C105.851 14.146 105.561 14.482 105.179 14.762C104.805 15.0327 104.301 15.168 103.667 15.168ZM103.849 14.174C104.297 14.174 104.679 14.0573 104.997 13.824C105.323 13.5907 105.571 13.2873 105.739 12.914C105.907 12.5407 105.991 12.1487 105.991 11.738V11.724H104.213C103.522 11.724 103.032 11.8453 102.743 12.088C102.463 12.3213 102.323 12.6153 102.323 12.97C102.323 13.334 102.453 13.628 102.715 13.852C102.985 14.0667 103.363 14.174 103.849 14.174ZM108.931 15V8.056H109.995L110.079 9.064C110.303 8.69067 110.602 8.40133 110.975 8.196C111.348 7.99067 111.768 7.888 112.235 7.888C112.786 7.888 113.257 8 113.649 8.224C114.05 8.448 114.358 8.78867 114.573 9.246C114.816 8.826 115.147 8.49467 115.567 8.252C115.996 8.00933 116.458 7.888 116.953 7.888C117.784 7.888 118.446 8.14 118.941 8.644C119.436 9.13867 119.683 9.904 119.683 10.94V15H118.521V11.066C118.521 10.3473 118.376 9.806 118.087 9.442C117.798 9.078 117.382 8.896 116.841 8.896C116.281 8.896 115.814 9.11533 115.441 9.554C115.077 9.98333 114.895 10.5993 114.895 11.402V15H113.719V11.066C113.719 10.3473 113.574 9.806 113.285 9.442C112.996 9.078 112.58 8.896 112.039 8.896C111.488 8.896 111.026 9.11533 110.653 9.554C110.289 9.98333 110.107 10.5993 110.107 11.402V15H108.931ZM123.32 15L120.688 8.056H121.92L124.006 13.866L126.106 8.056H127.31L124.678 15H123.32ZM129.332 6.516C129.099 6.516 128.903 6.44133 128.744 6.292C128.595 6.13333 128.52 5.93733 128.52 5.704C128.52 5.48 128.595 5.29333 128.744 5.144C128.903 4.99467 129.099 4.92 129.332 4.92C129.556 4.92 129.748 4.99467 129.906 5.144C130.065 5.29333 130.144 5.48 130.144 5.704C130.144 5.93733 130.065 6.13333 129.906 6.292C129.748 6.44133 129.556 6.516 129.332 6.516ZM128.744 15V8.056H129.92V15H128.744ZM134.712 15C134.077 15 133.578 14.846 133.214 14.538C132.85 14.23 132.668 13.6747 132.668 12.872V9.05H131.464V8.056H132.668L132.822 6.39H133.844V8.056H135.888V9.05H133.844V12.872C133.844 13.3107 133.933 13.6093 134.11 13.768C134.287 13.9173 134.6 13.992 135.048 13.992H135.776V15H134.712Z" fill="#F85F48"/>
<path d="M20 16.75H136.42V17.45H20V16.75Z" fill="#F85F48"/>
<path d="M9.99999 0.400024C4.69799 0.400024 0.399994 4.69802 0.399994 10C0.399994 15.302 4.69799 19.6 9.99999 19.6C15.302 19.6 19.6 15.302 19.6 10C19.6 4.69802 15.302 0.400024 9.99999 0.400024ZM7.64999 13.979H5.70599V7.72302H7.64999V13.979ZM6.66599 6.95502C6.05199 6.95502 5.65499 6.52002 5.65499 5.98202C5.65499 5.43302 6.06399 5.01102 6.69099 5.01102C7.31799 5.01102 7.70199 5.43302 7.71399 5.98202C7.71399 6.52002 7.31799 6.95502 6.66599 6.95502ZM14.75 13.979H12.806V10.512C12.806 9.70502 12.524 9.15702 11.821 9.15702C11.284 9.15702 10.965 9.52802 10.824 9.88503C10.772 10.012 10.759 10.192 10.759 10.371V13.978H8.81399V9.71803C8.81399 8.93703 8.78899 8.28402 8.76299 7.72202H10.452L10.541 8.59102H10.58C10.836 8.18302 11.463 7.58102 12.512 7.58102C13.791 7.58102 14.75 8.43802 14.75 10.28V13.979Z" fill="#132B47"/>
</svg>
