<svg width="88" height="20" viewBox="0 0 88 20" fill="none" xmlns="http://www.w3.org/2000/svg">
<path d="M25.392 16.33L28.906 4.304H30.068L26.554 16.33H25.392ZM34.6268 15.168C33.9081 15.168 33.2828 15.0373 32.7508 14.776C32.2188 14.5147 31.8081 14.1507 31.5188 13.684C31.2294 13.2173 31.0848 12.676 31.0848 12.06H32.3167C32.3167 12.4427 32.4054 12.7973 32.5828 13.124C32.7601 13.4413 33.0168 13.698 33.3528 13.894C33.6981 14.0807 34.1228 14.174 34.6268 14.174C35.2894 14.174 35.8028 14.0153 36.1668 13.698C36.5308 13.3807 36.7128 12.984 36.7128 12.508C36.7128 12.116 36.6288 11.8033 36.4608 11.57C36.2928 11.3273 36.0641 11.1313 35.7748 10.982C35.4948 10.8327 35.1681 10.702 34.7948 10.59C34.4308 10.478 34.0481 10.352 33.6468 10.212C32.8908 9.95067 32.3308 9.62867 31.9668 9.246C31.6028 8.854 31.4208 8.34533 31.4208 7.72C31.4114 7.19733 31.5328 6.73533 31.7848 6.334C32.0368 5.92333 32.3914 5.606 32.8488 5.382C33.3154 5.14867 33.8661 5.032 34.5008 5.032C35.1261 5.032 35.6674 5.14867 36.1248 5.382C36.5914 5.61533 36.9508 5.93733 37.2028 6.348C37.4641 6.75867 37.5994 7.22533 37.6088 7.748H36.3768C36.3768 7.47733 36.3068 7.21133 36.1668 6.95C36.0268 6.67933 35.8121 6.46 35.5228 6.292C35.2428 6.124 34.8881 6.04 34.4588 6.04C33.9268 6.03067 33.4881 6.166 33.1428 6.446C32.8068 6.726 32.6388 7.11333 32.6388 7.608C32.6388 8.028 32.7554 8.35 32.9888 8.574C33.2314 8.798 33.5674 8.98467 33.9968 9.134C34.4261 9.274 34.9208 9.43733 35.4808 9.624C35.9474 9.792 36.3674 9.988 36.7408 10.212C37.1141 10.436 37.4034 10.7253 37.6088 11.08C37.8234 11.4347 37.9308 11.8873 37.9308 12.438C37.9308 12.9047 37.8094 13.348 37.5668 13.768C37.3241 14.1787 36.9554 14.5147 36.4608 14.776C35.9754 15.0373 35.3641 15.168 34.6268 15.168ZM39.5985 15V5.2H40.7745V15H39.5985ZM42.2364 15L45.8484 5.2H47.0944L50.6924 15H49.4464L48.5504 12.48H44.3784L43.4684 15H42.2364ZM44.7284 11.528H48.2004L46.4644 6.684L44.7284 11.528ZM52.1493 15V5.2H53.5213L57.0493 12.032L60.5493 5.2H61.9353V15H60.7593V7.3L57.4833 13.6H56.6013L53.3253 7.314V15H52.1493ZM70.6619 15L66.9799 5.2H68.2539L71.3479 13.754L74.4699 5.2H75.7159L72.0339 15H70.6619ZM77.0594 15V5.2H78.2354V15H77.0594ZM82.6093 15V6.166H79.6833V5.2H86.7113V6.166H83.7853V15H82.6093Z" fill="#F85F48"/>
<path d="M25 16.75H87.1173V17.45H25V16.75Z" fill="#F85F48"/>
<path d="M9.99999 0.400024C4.69799 0.400024 0.399994 4.69802 0.399994 10C0.399994 15.302 4.69799 19.6 9.99999 19.6C15.302 19.6 19.6 15.302 19.6 10C19.6 4.69802 15.302 0.400024 9.99999 0.400024ZM12.274 7.03402H10.831C10.66 7.03402 10.47 7.25902 10.47 7.55802V8.60003H12.275L12.002 10.086H10.47V14.547H8.76699V10.086H7.22199V8.60003H8.76699V7.72602C8.76699 6.47202 9.63699 5.45302 10.831 5.45302H12.274V7.03402Z" fill="#132B47"/>
</svg>
