<svg width="76" height="20" viewBox="0 0 76 20" fill="none" xmlns="http://www.w3.org/2000/svg">
<path d="M24.392 16.33L27.906 4.304H29.068L25.554 16.33H24.392ZM32.6709 15.168C31.8403 15.168 31.1496 14.958 30.5989 14.538C30.0483 14.118 29.7263 13.5487 29.6329 12.83H30.8369C30.9116 13.194 31.1029 13.5113 31.4109 13.782C31.7283 14.0433 32.1529 14.174 32.6849 14.174C33.1796 14.174 33.5436 14.0713 33.7769 13.866C34.0103 13.6513 34.1269 13.3993 34.1269 13.11C34.1269 12.69 33.9729 12.41 33.6649 12.27C33.3663 12.13 32.9416 12.004 32.3909 11.892C32.0176 11.8173 31.6443 11.71 31.2709 11.57C30.8976 11.43 30.5849 11.234 30.3329 10.982C30.0809 10.7207 29.9549 10.38 29.9549 9.96C29.9549 9.35333 30.1789 8.85867 30.6269 8.476C31.0843 8.084 31.7003 7.888 32.4749 7.888C33.2123 7.888 33.8143 8.07467 34.2809 8.448C34.7569 8.812 35.0323 9.33467 35.1069 10.016H33.9449C33.8983 9.66133 33.7443 9.386 33.4829 9.19C33.2309 8.98467 32.8903 8.882 32.4609 8.882C32.0409 8.882 31.7143 8.97067 31.4809 9.148C31.2569 9.32533 31.1449 9.55867 31.1449 9.848C31.1449 10.128 31.2896 10.3473 31.5789 10.506C31.8776 10.6647 32.2789 10.8 32.7829 10.912C33.2123 11.0053 33.6183 11.122 34.0009 11.262C34.3929 11.3927 34.7103 11.5933 34.9529 11.864C35.2049 12.1253 35.3309 12.508 35.3309 13.012C35.3403 13.6373 35.1023 14.1553 34.6169 14.566C34.1409 14.9673 33.4923 15.168 32.6709 15.168ZM37.7249 6.516C37.4916 6.516 37.2956 6.44133 37.1369 6.292C36.9876 6.13333 36.9129 5.93733 36.9129 5.704C36.9129 5.48 36.9876 5.29333 37.1369 5.144C37.2956 4.99467 37.4916 4.92 37.7249 4.92C37.9489 4.92 38.1403 4.99467 38.2989 5.144C38.4576 5.29333 38.5369 5.48 38.5369 5.704C38.5369 5.93733 38.4576 6.13333 38.2989 6.292C38.1403 6.44133 37.9489 6.516 37.7249 6.516ZM37.1369 15V8.056H38.3129V15H37.1369ZM42.6705 15.168C42.0919 15.168 41.6112 15.07 41.2285 14.874C40.8459 14.678 40.5612 14.4167 40.3745 14.09C40.1879 13.7633 40.0945 13.4087 40.0945 13.026C40.0945 12.3167 40.3652 11.7707 40.9065 11.388C41.4479 11.0053 42.1852 10.814 43.1185 10.814H44.9945V10.73C44.9945 10.1233 44.8359 9.666 44.5185 9.358C44.2012 9.04067 43.7765 8.882 43.2445 8.882C42.7872 8.882 42.3905 8.99867 42.0545 9.232C41.7279 9.456 41.5225 9.78733 41.4385 10.226H40.2345C40.2812 9.722 40.4492 9.29733 40.7385 8.952C41.0372 8.60667 41.4059 8.34533 41.8445 8.168C42.2832 7.98133 42.7499 7.888 43.2445 7.888C44.2152 7.888 44.9432 8.14933 45.4285 8.672C45.9232 9.18533 46.1705 9.87133 46.1705 10.73V15H45.1205L45.0505 13.754C44.8545 14.146 44.5652 14.482 44.1825 14.762C43.8092 15.0327 43.3052 15.168 42.6705 15.168ZM42.8525 14.174C43.3005 14.174 43.6832 14.0573 44.0005 13.824C44.3272 13.5907 44.5745 13.2873 44.7425 12.914C44.9105 12.5407 44.9945 12.1487 44.9945 11.738V11.724H43.2165C42.5259 11.724 42.0359 11.8453 41.7465 12.088C41.4665 12.3213 41.3265 12.6153 41.3265 12.97C41.3265 13.334 41.4572 13.628 41.7185 13.852C41.9892 14.0667 42.3672 14.174 42.8525 14.174ZM47.9348 15V8.056H48.9988L49.0828 9.064C49.3068 8.69067 49.6054 8.40133 49.9788 8.196C50.3521 7.99067 50.7721 7.888 51.2388 7.888C51.7894 7.888 52.2608 8 52.6528 8.224C53.0541 8.448 53.3621 8.78867 53.5768 9.246C53.8194 8.826 54.1508 8.49467 54.5708 8.252C55.0001 8.00933 55.4621 7.888 55.9568 7.888C56.7874 7.888 57.4501 8.14 57.9448 8.644C58.4394 9.13867 58.6868 9.904 58.6868 10.94V15H57.5248V11.066C57.5248 10.3473 57.3801 9.806 57.0908 9.442C56.8014 9.078 56.3861 8.896 55.8448 8.896C55.2848 8.896 54.8181 9.11533 54.4448 9.554C54.0808 9.98333 53.8988 10.5993 53.8988 11.402V15H52.7228V11.066C52.7228 10.3473 52.5781 9.806 52.2888 9.442C51.9994 9.078 51.5841 8.896 51.0428 8.896C50.4921 8.896 50.0301 9.11533 49.6568 9.554C49.2928 9.98333 49.1108 10.5993 49.1108 11.402V15H47.9348ZM62.3235 15L59.6915 8.056H60.9235L63.0095 13.866L65.1095 8.056H66.3135L63.6815 15H62.3235ZM68.3363 6.516C68.1029 6.516 67.9069 6.44133 67.7483 6.292C67.5989 6.13333 67.5243 5.93733 67.5243 5.704C67.5243 5.48 67.5989 5.29333 67.7483 5.144C67.9069 4.99467 68.1029 4.92 68.3363 4.92C68.5603 4.92 68.7516 4.99467 68.9103 5.144C69.0689 5.29333 69.1483 5.48 69.1483 5.704C69.1483 5.93733 69.0689 6.13333 68.9103 6.292C68.7516 6.44133 68.5603 6.516 68.3363 6.516ZM67.7483 15V8.056H68.9243V15H67.7483ZM73.7159 15C73.0812 15 72.5819 14.846 72.2179 14.538C71.8539 14.23 71.6719 13.6747 71.6719 12.872V9.05H70.4679V8.056H71.6719L71.8259 6.39H72.8479V8.056H74.8919V9.05H72.8479V12.872C72.8479 13.3107 72.9365 13.6093 73.1139 13.768C73.2912 13.9173 73.6039 13.992 74.0519 13.992H74.7799V15H73.7159Z" fill="#F85F48"/>
<path d="M24 16.75H75.4239V17.45H24V16.75Z" fill="#F85F48"/>
<path d="M9.6875 6.56747C7.97983 6.56747 6.58623 8.01712 6.58623 9.79349C6.58623 11.5699 7.97983 13.0195 9.6875 13.0195C11.3952 13.0195 12.7888 11.5699 12.7888 9.79349C12.7888 8.01712 11.3952 6.56747 9.6875 6.56747ZM18.989 9.79349C18.989 8.45758 19.0006 7.13378 18.9285 5.8003C18.8564 4.25142 18.5167 2.8768 17.4279 1.74418C16.3367 0.609151 15.0176 0.258234 13.5286 0.183211C12.2444 0.108187 10.9717 0.120288 9.68983 0.120288C8.40558 0.120288 7.13297 0.108187 5.85105 0.183211C4.36207 0.258234 3.0406 0.611571 1.95178 1.74418C0.860636 2.87922 0.523289 4.25142 0.451166 5.8003C0.379043 7.1362 0.390676 8.46 0.390676 9.79349C0.390676 11.127 0.379043 12.4532 0.451166 13.7867C0.523289 15.3356 0.862962 16.7102 1.95178 17.8428C3.04292 18.9778 4.36207 19.3287 5.85105 19.4038C7.1353 19.4788 8.40791 19.4667 9.68983 19.4667C10.9741 19.4667 12.2467 19.4788 13.5286 19.4038C15.0176 19.3287 16.3391 18.9754 17.4279 17.8428C18.519 16.7078 18.8564 15.3356 18.9285 13.7867C19.0029 12.4532 18.989 11.1294 18.989 9.79349ZM9.6875 14.7571C7.04689 14.7571 4.91578 12.5403 4.91578 9.79349C4.91578 7.04666 7.04689 4.82983 9.6875 4.82983C12.3281 4.82983 14.4592 7.04666 14.4592 9.79349C14.4592 12.5403 12.3281 14.7571 9.6875 14.7571ZM14.6547 5.78578C14.0381 5.78578 13.5402 5.26787 13.5402 4.62654C13.5402 3.98521 14.0381 3.46731 14.6547 3.46731C15.2712 3.46731 15.7691 3.98521 15.7691 4.62654C15.7692 4.77883 15.7405 4.92966 15.6846 5.07039C15.6287 5.21112 15.5466 5.33899 15.4431 5.44667C15.3395 5.55435 15.2166 5.63974 15.0813 5.69793C14.946 5.75611 14.801 5.78597 14.6547 5.78578Z" fill="#132B47"/>
</svg>
