<svg width="50" height="45" viewBox="0 0 50 45" fill="none" xmlns="http://www.w3.org/2000/svg">
<path fill-rule="evenodd" clip-rule="evenodd" d="M46.1014 22.5C46.1014 34.6472 36.6539 44.4944 24.9998 44.4944C13.3458 44.4944 3.89832 34.6472 3.89832 22.5C3.89832 10.3528 13.3458 0.505629 24.9998 0.505629C36.6539 0.505629 46.1014 10.3528 46.1014 22.5ZM38.1782 22.5C38.1782 30.0862 32.278 36.236 24.9998 36.236C17.7216 36.236 11.8215 30.0862 11.8215 22.5C11.8215 14.9138 17.7216 8.76406 24.9998 8.76406C32.278 8.76406 38.1782 14.9138 38.1782 22.5Z" fill="white"/>
<path fill-rule="evenodd" clip-rule="evenodd" d="M3.41345 22.5C3.41345 10.0736 13.0781 0 25.0001 0C36.922 0 46.5867 10.0736 46.5867 22.5C46.5867 34.9264 36.922 45 25.0001 45C13.0781 45 3.41345 34.9264 3.41345 22.5ZM25.0001 1.01124C13.6139 1.01124 4.38364 10.6321 4.38364 22.5C4.38364 34.3679 13.6139 43.9888 25.0001 43.9888C36.3862 43.9888 45.6165 34.3679 45.6165 22.5C45.6165 10.6321 36.3862 1.01124 25.0001 1.01124ZM11.3366 22.5C11.3366 14.6346 17.454 8.25843 25.0001 8.25843C32.5462 8.25843 38.6635 14.6346 38.6635 22.5C38.6635 30.3654 32.5462 36.7416 25.0001 36.7416C17.454 36.7416 11.3366 30.3654 11.3366 22.5ZM25.0001 9.26966C17.9898 9.26966 12.3068 15.1931 12.3068 22.5C12.3068 29.8069 17.9898 35.7303 25.0001 35.7303C32.0104 35.7303 37.6933 29.8069 37.6933 22.5C37.6933 15.1931 32.0104 9.26966 25.0001 9.26966Z" fill="#132B47"/>
<path d="M25.0275 1.02974V5.80783L21.5397 4.25053L25.0275 1.02974Z" fill="#132B47"/>
<path d="M28.5153 4.25053L25.0275 5.80783V1.02974L28.5153 4.25053Z" fill="#F85F48"/>
<path d="M23.4089 8.29382L25.0275 5.80787L21.5397 4.25056L23.4089 8.29382Z" fill="#F85F48"/>
<path d="M26.3954 8.26686L28.5153 4.25056L25.0275 5.80787L26.3954 8.26686Z" fill="#132B47"/>
<path d="M17.1334 2.66629L18.8878 7.08034L15.0944 7.03315L17.1334 2.66629Z" fill="#132B47"/>
<path d="M21.5396 4.25056L18.8877 7.08034L17.1333 2.66629L21.5396 4.25056Z" fill="#F85F48"/>
<path d="M18.3057 10.0248L18.8878 7.08037L15.0944 7.03318L18.3057 10.0248Z" fill="#F85F48"/>
<path d="M21.0546 8.80618L21.5397 4.25056L18.8878 7.08034L21.0546 8.80618Z" fill="#132B47"/>
<path d="M10.4425 7.32636L13.6845 10.7056L10.1611 12.1752L10.4425 7.32636Z" fill="#132B47"/>
<path d="M15.0944 7.03318L13.6844 10.7057L10.4424 7.32644L15.0944 7.03318Z" fill="#F85F48"/>
<path d="M14.2262 13.6567L13.6845 10.7056L10.1611 12.1753L14.2262 13.6567Z" fill="#F85F48"/>
<path d="M16.3185 11.4354L15.0945 7.03318L13.6844 10.7057L16.3185 11.4354Z" fill="#132B47"/>
<path d="M5.97156 14.3022L10.2064 16.1292L7.49151 18.8932L5.97156 14.3022Z" fill="#132B47"/>
<path d="M10.1611 12.1753L10.2064 16.1292L5.97156 14.3023L10.1611 12.1753Z" fill="#F85F48"/>
<path d="M11.7909 18.6405L10.2062 16.1292L7.49133 18.8933L11.7909 18.6405Z" fill="#F85F48"/>
<path d="M12.9084 15.7534L10.1611 12.1753L10.2064 16.1292L12.9084 15.7534Z" fill="#132B47"/>
<path d="M4.40137 22.5286H8.98549L7.49141 26.164L4.40137 22.5286Z" fill="#132B47"/>
<path d="M7.49141 18.8932L8.98549 22.5286H4.40137L7.49141 18.8932Z" fill="#F85F48"/>
<path d="M11.3705 24.2157L8.98542 22.5286L7.49133 26.164L11.3705 24.2157Z" fill="#F85F48"/>
<path d="M11.3446 21.1045L7.49133 18.8932L8.98542 22.5286L11.3446 21.1045Z" fill="#132B47"/>
<path d="M5.97156 30.7567L10.2064 28.9281L10.1611 32.882L5.97156 30.7567Z" fill="#132B47"/>
<path d="M7.49151 26.164L10.2064 28.9281L5.97156 30.7567L7.49151 26.164Z" fill="#F85F48"/>
<path d="M13.0313 29.5348L10.2064 28.9281L10.1611 32.882L13.0313 29.5348Z" fill="#F85F48"/>
<path d="M11.862 26.6696L7.49133 26.164L10.2062 28.9281L11.862 26.6696Z" fill="#132B47"/>
<path d="M10.4424 37.731L13.6844 34.3518L15.0944 38.0242L10.4424 37.731Z" fill="#132B47"/>
<path d="M10.1611 32.882L13.6845 34.3517L10.4425 37.7309L10.1611 32.882Z" fill="#F85F48"/>
<path d="M16.5158 33.7871L13.6844 34.3517L15.0945 38.0242L16.5158 33.7871Z" fill="#F85F48"/>
<path d="M14.3847 31.6062L10.1611 32.882L13.6845 34.3517L14.3847 31.6062Z" fill="#132B47"/>
<path d="M17.135 42.3909L18.8878 37.9769L21.5396 40.8067L17.135 42.3909Z" fill="#132B47"/>
<path d="M15.0944 38.0241L18.8878 37.9769L17.135 42.3909L15.0944 38.0241Z" fill="#F85F48"/>
<path d="M21.2971 36.3253L18.8878 37.977L21.5397 40.8067L21.2971 36.3253Z" fill="#F85F48"/>
<path d="M18.5272 35.1606L15.0944 38.0241L18.8878 37.9769L18.5272 35.1606Z" fill="#132B47"/>
<path d="M25.0275 44.0275V39.2494L28.5153 40.8067L25.0275 44.0275Z" fill="#132B47"/>
<path d="M21.5397 40.8067L25.0275 39.2494V44.0275L21.5397 40.8067Z" fill="#F85F48"/>
<path d="M26.6461 36.7635L25.0275 39.2494L28.5153 40.8067L26.6461 36.7635Z" fill="#F85F48"/>
<path d="M23.6611 36.7904L21.5397 40.8067L25.0275 39.2494L23.6611 36.7904Z" fill="#132B47"/>
<path d="M32.9215 42.3909L31.1671 37.9769L34.9605 38.0241L32.9215 42.3909Z" fill="#132B47"/>
<path d="M28.5153 40.8067L31.1671 37.9769L32.9215 42.3909L28.5153 40.8067Z" fill="#F85F48"/>
<path d="M31.7492 35.0343L31.1671 37.977L34.9605 38.0242L31.7492 35.0343Z" fill="#F85F48"/>
<path d="M29.0004 36.2511L28.5153 40.8067L31.1671 37.977L29.0004 36.2511Z" fill="#132B47"/>
<path d="M39.6125 37.7309L36.3705 34.3517L39.8939 32.882L39.6125 37.7309Z" fill="#132B47"/>
<path d="M34.9606 38.0242L36.3706 34.3518L39.6126 37.731L34.9606 38.0242Z" fill="#F85F48"/>
<path d="M35.8289 31.4006L36.3705 34.3517L39.8939 32.882L35.8289 31.4006Z" fill="#F85F48"/>
<path d="M33.7365 33.6219L34.9605 38.0242L36.3705 34.3517L33.7365 33.6219Z" fill="#132B47"/>
<path d="M44.0835 30.755L39.8486 28.9281L42.5635 26.164L44.0835 30.755Z" fill="#132B47"/>
<path d="M39.8939 32.882L39.8486 28.9281L44.0835 30.755L39.8939 32.882Z" fill="#F85F48"/>
<path d="M38.264 26.4168L39.8487 28.9281L42.5636 26.164L38.264 26.4168Z" fill="#F85F48"/>
<path d="M37.1467 29.3039L39.894 32.882L39.8487 28.9281L37.1467 29.3039Z" fill="#132B47"/>
<path d="M45.6536 22.5286H41.0695L42.5635 18.8932L45.6536 22.5286Z" fill="#132B47"/>
<path d="M42.5635 26.164L41.0695 22.5286H45.6536L42.5635 26.164Z" fill="#F85F48"/>
<path d="M38.6844 20.8415L41.0695 22.5286L42.5636 18.8932L38.6844 20.8415Z" fill="#F85F48"/>
<path d="M38.7103 23.9545L42.5636 26.164L41.0695 22.5286L38.7103 23.9545Z" fill="#132B47"/>
<path d="M44.0835 14.3006L39.8486 16.1292L39.8939 12.1753L44.0835 14.3006Z" fill="#132B47"/>
<path d="M42.5635 18.8933L39.8486 16.1292L44.0835 14.3006L42.5635 18.8933Z" fill="#F85F48"/>
<path d="M37.0255 15.5225L39.8488 16.1292L39.894 12.1753L37.0255 15.5225Z" fill="#F85F48"/>
<path d="M38.193 18.3877L42.5637 18.8933L39.8488 16.1292L38.193 18.3877Z" fill="#132B47"/>
<path d="M39.6126 7.32644L36.3706 10.7057L34.9606 7.03318L39.6126 7.32644Z" fill="#132B47"/>
<path d="M39.8939 12.1752L36.3705 10.7056L39.6125 7.32636L39.8939 12.1752Z" fill="#F85F48"/>
<path d="M33.5392 11.2703L36.3705 10.7057L34.9605 7.03318L33.5392 11.2703Z" fill="#F85F48"/>
<path d="M35.6704 13.4511L39.8939 12.1753L36.3706 10.7056L35.6704 13.4511Z" fill="#132B47"/>
<path d="M32.9199 2.66629L31.1671 7.08034L28.5153 4.25056L32.9199 2.66629Z" fill="#132B47"/>
<path d="M34.9605 7.03315L31.1671 7.08034L32.9199 2.66629L34.9605 7.03315Z" fill="#F85F48"/>
<path d="M28.7578 8.73203L31.1671 7.08034L28.5153 4.25056L28.7578 8.73203Z" fill="#F85F48"/>
<path d="M31.5277 9.89666L34.9605 7.03318L31.1671 7.08037L31.5277 9.89666Z" fill="#132B47"/>
<path d="M0 15.6532C0 14.8502 0.623993 14.1992 1.39373 14.1992H48.6063C49.376 14.1992 50 14.8502 50 15.6532V29.2848C50 30.0879 49.376 30.7389 48.6063 30.7389H1.39373C0.623995 30.7389 0 30.0879 0 29.2848V15.6532Z" fill="white"/>
<path fill-rule="evenodd" clip-rule="evenodd" d="M48.6063 15.2897H1.39373C1.20129 15.2897 1.0453 15.4524 1.0453 15.6532V29.2848C1.0453 29.4856 1.20129 29.6483 1.39373 29.6483H48.6063C48.7987 29.6483 48.9547 29.4856 48.9547 29.2848V15.6532C48.9547 15.4524 48.7987 15.2897 48.6063 15.2897ZM1.39373 14.1992C0.623993 14.1992 0 14.8502 0 15.6532V29.2848C0 30.0879 0.623995 30.7389 1.39373 30.7389H48.6063C49.376 30.7389 50 30.0879 50 29.2848V15.6532C50 14.8502 49.376 14.1992 48.6063 14.1992H1.39373Z" fill="#132B47"/>
<path d="M2.24548 28.8845H4.02645V23.3665H5.41165V28.8845H7.19262V16.2103H5.41165V21.4524H4.02645V16.2103H2.24548V28.8845Z" fill="#132B47"/>
<path d="M8.0152 28.8845H9.7467L10.0765 26.2979H11.7915L12.1213 28.8845H13.8528L12.0224 16.2103H9.84564L8.0152 28.8845ZM10.3239 24.3321L10.8351 20.3316L10.8845 20.0039H10.9835L11.033 20.3316L11.5442 24.3321H10.3239Z" fill="#132B47"/>
<path d="M16.9369 29.0225C17.635 29.0225 18.2039 28.7667 18.6437 28.2551C19.0889 27.7435 19.3115 27.0854 19.3115 26.2807V24.5391H17.646V26.2807C17.646 26.9015 17.4206 27.2119 16.9699 27.2119C16.794 27.2119 16.6456 27.1285 16.5247 26.9618C16.4037 26.7894 16.3433 26.5623 16.3433 26.2807V18.8141C16.3433 18.5267 16.3982 18.2996 16.5082 18.133C16.6236 17.9663 16.7775 17.8829 16.9699 17.8829C17.4206 17.8829 17.646 18.1933 17.646 18.8141V20.5557H19.3115V18.8141C19.3115 17.9921 19.0917 17.3311 18.6519 16.831C18.2177 16.3252 17.646 16.0723 16.9369 16.0723C16.2168 16.0723 15.6397 16.3224 15.2054 16.8224C14.7767 17.3167 14.5623 17.9806 14.5623 18.8141V26.2807C14.5623 27.1314 14.7822 27.801 15.2219 28.2896C15.6617 28.7782 16.2333 29.0225 16.9369 29.0225Z" fill="#132B47"/>
<path d="M20.3785 28.8845H22.1595V24.4011L22.5718 23.3665L22.6707 23.1078H22.7202L22.7696 23.3665L24.0064 28.8845H25.7379L23.891 20.3833L25.5235 16.2103H23.792L22.3079 20.435L22.2255 20.6419H22.1595V16.2103H20.3785V28.8845Z" fill="#132B47"/>
<path d="M28.9206 29.0225C29.6242 29.0225 30.1903 28.7782 30.6191 28.2896C31.0478 27.7953 31.2732 27.1256 31.2952 26.2807V16.2103H29.5142V26.2807C29.5142 26.5681 29.462 26.7951 29.3576 26.9618C29.2531 27.1285 29.1075 27.2119 28.9206 27.2119C28.7337 27.2119 28.588 27.1285 28.4836 26.9618C28.3791 26.7951 28.3269 26.5681 28.3269 26.2807V16.2103H26.5459V26.2807C26.5789 27.1314 26.807 27.801 27.2303 28.2896C27.6536 28.7782 28.217 29.0225 28.9206 29.0225Z" fill="#132B47"/>
<path d="M32.6014 28.8845H36.7405V27.1601H34.3824V16.2103H32.6014V28.8845Z" fill="#132B47"/>
<path d="M39.8229 29.0225C40.5265 29.0225 41.0927 28.7782 41.5215 28.2896C41.9502 27.7953 42.1756 27.1256 42.1976 26.2807V16.2103H40.4166V26.2807C40.4166 26.5681 40.3644 26.7951 40.2599 26.9618C40.1555 27.1285 40.0098 27.2119 39.8229 27.2119C39.636 27.2119 39.4904 27.1285 39.3859 26.9618C39.2815 26.7951 39.2293 26.5681 39.2293 26.2807V16.2103H37.4483V26.2807C37.4813 27.1314 37.7094 27.801 38.1327 28.2896C38.5559 28.7782 39.1193 29.0225 39.8229 29.0225Z" fill="#132B47"/>
<path d="M45.73 29.0225C46.538 29.0225 47.1509 28.7581 47.5687 28.2292C47.9919 27.7004 48.2036 26.9302 48.2036 25.9186C48.2036 25.361 48.0771 24.7776 47.8243 24.1683C47.5714 23.559 47.1427 22.8089 46.538 21.918C46.0048 21.1305 45.6366 20.5241 45.4332 20.0988C45.2353 19.6734 45.1363 19.2912 45.1363 18.952C45.1363 18.1761 45.3397 17.7852 45.7465 17.7795C46.2192 17.768 46.4556 18.3772 46.4556 19.6073L48.2036 19.4349C48.2036 18.3428 47.9864 17.5064 47.5522 16.9259C47.1234 16.3396 46.5105 16.0551 45.7135 16.0723C45.0264 16.0838 44.4657 16.3655 44.0315 16.9173C43.6027 17.4633 43.3884 18.1703 43.3884 19.0383C43.3884 19.9982 43.8666 21.2196 44.823 22.7026C45.1968 23.2774 45.4909 23.743 45.7053 24.0993C45.9251 24.4557 46.0873 24.746 46.1917 24.9702C46.3017 25.1886 46.3731 25.3811 46.4061 25.5478C46.4391 25.7145 46.4556 25.8956 46.4556 26.091C46.4556 26.9072 46.2137 27.3153 45.73 27.3153C45.4387 27.3153 45.2243 27.1458 45.0869 26.8066C44.9549 26.4617 44.889 25.9128 44.889 25.1598L43.141 25.3323C43.0585 27.7924 43.9215 29.0225 45.73 29.0225Z" fill="#132B47"/>
</svg>
